<mxfile host="65bd71144e">
    <diagram id="byUKr9BjSWcApCmpbpIT" name="ページ1">
        <mxGraphModel dx="1002" dy="563" grid="1" gridSize="10" guides="1" tooltips="1" connect="1" arrows="1" fold="1" page="1" pageScale="1" pageWidth="827" pageHeight="1169" math="0" shadow="0">
            <root>
                <mxCell id="0"/>
                <mxCell id="1" parent="0"/>
                <mxCell id="2" value="テストコード作成" style="shape=step;perimeter=stepPerimeter;whiteSpace=wrap;html=1;fixedSize=1;" vertex="1" parent="1">
                    <mxGeometry x="20" y="40" width="140" height="80" as="geometry"/>
                </mxCell>
                <mxCell id="3" value="ID作成手順作成" style="shape=step;perimeter=stepPerimeter;whiteSpace=wrap;html=1;fixedSize=1;" vertex="1" parent="1">
                    <mxGeometry x="150" y="40" width="140" height="80" as="geometry"/>
                </mxCell>
                <mxCell id="4" value="ID作成" style="shape=step;perimeter=stepPerimeter;whiteSpace=wrap;html=1;fixedSize=1;" vertex="1" parent="1">
                    <mxGeometry x="280" y="40" width="140" height="80" as="geometry"/>
                </mxCell>
                <mxCell id="5" value="ID定期チェック" style="shape=step;perimeter=stepPerimeter;whiteSpace=wrap;html=1;fixedSize=1;" vertex="1" parent="1">
                    <mxGeometry x="410" y="40" width="140" height="80" as="geometry"/>
                </mxCell>
                <mxCell id="6" value="&lt;h1&gt;テストコード作成&lt;/h1&gt;&lt;div&gt;IDの設計をコードで記述する。&lt;/div&gt;&lt;div&gt;このコードが後続のID定期チェックのネタになる。&lt;/div&gt;&lt;div&gt;コードがないとID作成が実行できないプロセスとして、必ずコードが用意されるようにする。&lt;/div&gt;" style="text;html=1;strokeColor=none;fillColor=none;spacing=5;spacingTop=-20;whiteSpace=wrap;overflow=hidden;rounded=0;" vertex="1" parent="1">
                    <mxGeometry x="41" y="181" width="320" height="120" as="geometry"/>
                </mxCell>
                <mxCell id="7" value="&lt;h1&gt;ID作成手順作成&lt;/h1&gt;&lt;div&gt;設計を元に手順書を作成する。&lt;/div&gt;&lt;div&gt;CIツールを使う。&lt;/div&gt;&lt;div&gt;テストコードから自動生成する仕組みを用意する。&lt;/div&gt;" style="text;html=1;strokeColor=none;fillColor=none;spacing=5;spacingTop=-20;whiteSpace=wrap;overflow=hidden;rounded=0;" vertex="1" parent="1">
                    <mxGeometry x="41" y="320" width="320" height="120" as="geometry"/>
                </mxCell>
                <mxCell id="8" value="&lt;h1&gt;ID作成&lt;/h1&gt;&lt;div&gt;CIツールを使う。&lt;/div&gt;" style="text;html=1;strokeColor=none;fillColor=none;spacing=5;spacingTop=-20;whiteSpace=wrap;overflow=hidden;rounded=0;" vertex="1" parent="1">
                    <mxGeometry x="440" y="181" width="320" height="120" as="geometry"/>
                </mxCell>
                <mxCell id="9" value="&lt;h1&gt;ID定期チェック&lt;/h1&gt;&lt;div&gt;テストコードとの乖離を定期的にチェックする。&lt;/div&gt;&lt;div&gt;テストツールを使う。&lt;/div&gt;" style="text;html=1;strokeColor=none;fillColor=none;spacing=5;spacingTop=-20;whiteSpace=wrap;overflow=hidden;rounded=0;" vertex="1" parent="1">
                    <mxGeometry x="440" y="320" width="320" height="120" as="geometry"/>
                </mxCell>
            </root>
        </mxGraphModel>
    </diagram>
</mxfile>